<svg xmlns="http://www.w3.org/2000/svg" xmlns:xlink="http://www.w3.org/1999/xlink" width="500" zoomAndPan="magnify" viewBox="0 0 375 374.999991" height="500" preserveAspectRatio="xMidYMid meet" version="1.0"><defs><g/></defs><rect x="-37.5" width="450" fill="#ffffff" y="-37.499999" height="449.999989" fill-opacity="1"/><rect x="-37.5" width="450" fill="#1bbe3a" y="-37.499999" height="449.999989" fill-opacity="1"/><g fill="#ffffff" fill-opacity="1"><g transform="translate(115.242184, 380.60825)"><g><path d="M 137.28125 -166.984375 L 100.359375 -166.984375 L 100.359375 0 L 31.71875 0 L 31.71875 -166.984375 L 6.828125 -166.984375 L 6.828125 -224 L 31.71875 -224 L 31.71875 -230.421875 C 31.71875 -257.984375 39.609375 -278.921875 55.390625 -293.234375 C 71.179688 -307.554688 94.332031 -314.71875 124.84375 -314.71875 C 129.925781 -314.71875 133.671875 -314.582031 136.078125 -314.3125 L 136.078125 -256.109375 C 122.960938 -256.910156 113.726562 -255.035156 108.375 -250.484375 C 103.03125 -245.929688 100.359375 -237.769531 100.359375 -226 L 100.359375 -224 L 137.28125 -224 Z M 137.28125 -166.984375 "/></g></g></g></svg>